# xmcd
#
# Track frame offsets:
#	150
#	14518
#	27772
#	42656
#	56499
#	69591
#	83378
#	96029
#	110263
#	123551
#	136834
#	150941
#	164937
#	179792
#
# Disc length: 2572 seconds
#
# Revision: 1
# Processed by: cddbd v1.5.2PL0 Copyright (c) Steve Scherf et al.
# Submitted via: audiograbber 1.83.01
#
DISCID=b80a0a0e
DTITLE=Isartaler Hexen - Voll der Wahnsinn
DYEAR=2007
DGENRE=Volksmusik
TTITLE0=Isartaler Hexen - Viva Bavaria
TTITLE1=Isartaler Hexen - Lass uns lecker Party machen
TTITLE2=Isartaler Hexen - Voll der Wahnsinn
TTITLE3=Isartaler Hexen - Drah di Uhr zurück
TTITLE4=Isartaler Hexen - In den hohen Bergen
TTITLE5=Isartaler Hexen - So a Lederhosen
TTITLE6=Isartaler Hexen - Hosianna olé
TTITLE7=Isartaler Hexen - Fraun stehn auf Kavaliere
TTITLE8=Isartaler Hexen - Afrika in Bavaria
TTITLE9=Isartaler Hexen - Hey nana hey!
TTITLE10=Isartaler Hexen - Ruck - Zuck
TTITLE11=Isartaler Hexen - Ein bisschen ist mir leider viel zu wenig
TTITLE12=Isartaler Hexen - Des steh ma durch
TTITLE13=Isartaler Hexen - Heut gemma nimma hoam
EXTD=
EXTT0=
EXTT1=
EXTT2=
EXTT3=
EXTT4=
EXTT5=
EXTT6=
EXTT7=
EXTT8=
EXTT9=
EXTT10=
EXTT11=
EXTT12=
EXTT13=
PLAYORDER=
